REM DIRINDEX 1\2,1\3
REM DIRNAME folder01,folder02,folder03
TITLE ""
FILE "DISC1Track21.mp3" MP3
  TRACK 01 AUDIO
    TITLE "0:"
    INDEX 01 00:00:00
  TRACK 02 AUDIO
    TITLE "3:cjc133_0922"
    INDEX 01 00:00:15
  TRACK 03 AUDIO
    TITLE "0:"
    INDEX 01 00:01:44
  TRACK 04 AUDIO
    TITLE "2:cjc133_0923"
    INDEX 01 00:02:20
  TRACK 05 AUDIO
    TITLE "2:cjc133_0924"
    INDEX 01 00:05:14
  TRACK 06 AUDIO
    TITLE "2:cjc133_0925"
    INDEX 01 00:07:60
  TRACK 07 AUDIO
    TITLE "0:"
    INDEX 01 00:09:40
  TRACK 08 AUDIO
    TITLE "2:cjc133_0926"
    INDEX 01 00:10:18
  TRACK 09 AUDIO
    TITLE "2:cjc133_0927"
    INDEX 01 00:12:58
  TRACK 10 AUDIO
    TITLE "2:cjc133_0928"
    INDEX 01 00:15:48
  TRACK 11 AUDIO
    TITLE "0:"
    INDEX 01 00:17:49
  TRACK 12 AUDIO
    TITLE "2:cjc133_0929"
    INDEX 01 00:18:25
  TRACK 13 AUDIO
    TITLE "2:cjc133_0930"
    INDEX 01 00:21:25
  TRACK 14 AUDIO
    TITLE "2:cjc133_0931"
    INDEX 01 00:24:67
  TRACK 15 AUDIO
    TITLE "0:"
    INDEX 01 00:27:34
  TRACK 16 AUDIO
    TITLE "2:cjc133_0932"
    INDEX 01 00:28:12
  TRACK 17 AUDIO
    TITLE "2:cjc133_0933"
    INDEX 01 00:30:55
  TRACK 18 AUDIO
    TITLE "2:cjc133_0934"
    INDEX 01 00:33:07
  TRACK 19 AUDIO
    TITLE "0:"
    INDEX 01 00:34:49
  TRACK 20 AUDIO
    TITLE "2:cjc133_0935"
    INDEX 01 00:35:27
  TRACK 21 AUDIO
    TITLE "2:cjc133_0936"
    INDEX 01 00:36:62
  TRACK 22 AUDIO
    TITLE "2:cjc133_0937"
    INDEX 01 00:39:19
  TRACK 23 AUDIO
    TITLE "0:"
    INDEX 01 00:40:68
  TRACK 24 AUDIO
    TITLE "2:cjc133_0938"
    INDEX 01 00:41:44
  TRACK 25 AUDIO
    TITLE "2:cjc133_0939"
    INDEX 01 00:42:65
  TRACK 26 AUDIO
    TITLE "2:cjc133_0940"
    INDEX 01 00:46:06
  TRACK 27 AUDIO
    TITLE "0:"
    INDEX 01 00:48:32
  TRACK 28 AUDIO
    TITLE "2:cjc133_0941"
    INDEX 01 00:49:08
  TRACK 29 AUDIO
    TITLE "2:cjc133_0942"
    INDEX 01 00:51:34
  TRACK 30 AUDIO
    TITLE "2:cjc133_0943"
    INDEX 01 00:53:60
  TRACK 31 AUDIO
    TITLE "0:"
    INDEX 01 00:55:20
  TRACK 32 AUDIO
    TITLE "2:cjc133_0944"
    INDEX 01 00:55:65
  TRACK 33 AUDIO
    TITLE "2:cjc133_0945"
    INDEX 01 00:57:48
  TRACK 34 AUDIO
    TITLE "2:cjc133_0946"
    INDEX 01 00:59:63
  TRACK 35 AUDIO
    TITLE "0:"
    INDEX 01 01:01:13
  TRACK 36 AUDIO
    TITLE "2:cjc133_0947"
    INDEX 01 01:01:68
  TRACK 37 AUDIO
    TITLE "2:cjc133_0948"
    INDEX 01 01:03:49
  TRACK 38 AUDIO
    TITLE "2:cjc133_0949"
    INDEX 01 01:06:04
  TRACK 39 AUDIO
    TITLE "0:"
    INDEX 01 01:07:43
  TRACK 40 AUDIO
    TITLE "2:cjc133_0950"
    INDEX 01 01:08:23
  TRACK 41 AUDIO
    TITLE "2:cjc133_0951"
    INDEX 01 01:11:37
  TRACK 42 AUDIO
    TITLE "2:cjc133_0952"
    INDEX 01 01:15:09
  TRACK 43 AUDIO
    TITLE "0:"
    INDEX 01 01:17:67
  TRACK 44 AUDIO
    TITLE "2:cjc133_0953"
    INDEX 01 01:18:39
  TRACK 45 AUDIO
    TITLE "2:cjc133_0954"
    INDEX 01 01:20:14
  TRACK 46 AUDIO
    TITLE "2:cjc133_0955"
    INDEX 01 01:23:71
  TRACK 47 AUDIO
    TITLE "0:"
    INDEX 01 01:26:64
  TRACK 48 AUDIO
    TITLE "2:cjc133_0956"
    INDEX 01 01:27:38
  TRACK 49 AUDIO
    TITLE "2:cjc133_0957"
    INDEX 01 01:30:46
  TRACK 50 AUDIO
    TITLE "2:cjc133_0958"
    INDEX 01 01:34:10
  TRACK 51 AUDIO
    TITLE "0:"
    INDEX 01 01:36:56
  TRACK 52 AUDIO
    TITLE "2:cjc133_0959"
    INDEX 01 01:37:34
  TRACK 53 AUDIO
    TITLE "2:cjc133_0960"
    INDEX 01 01:40:35
  TRACK 54 AUDIO
    TITLE "2:cjc133_0961"
    INDEX 01 01:44:24
  TRACK 55 AUDIO
    TITLE "0:"
    INDEX 01 01:47:19
  TRACK 56 AUDIO
    TITLE "2:cjc133_0962"
    INDEX 01 01:47:68
  TRACK 57 AUDIO
    TITLE "2:cjc133_0963"
    INDEX 01 01:50:04
  TRACK 58 AUDIO
    TITLE "2:cjc133_0964"
    INDEX 01 01:53:74
  TRACK 59 AUDIO
    TITLE "0:"
    INDEX 01 01:56:73
  TRACK 60 AUDIO
    TITLE "2:cjc133_0965"
    INDEX 01 01:57:53
  TRACK 61 AUDIO
    TITLE "2:cjc133_0966"
    INDEX 01 01:59:67
  TRACK 62 AUDIO
    TITLE "2:cjc133_0967"
    INDEX 01 02:03:14
  TRACK 63 AUDIO
    TITLE "0:"
    INDEX 01 02:05:46
